<mxfile host="app.diagrams.net" modified="2024-02-25T21:55:15.326Z" agent="Mozilla/5.0 (Windows NT 10.0; Win64; x64) AppleWebKit/537.36 (KHTML, like Gecko) Chrome/121.0.0.0 Safari/537.36" etag="ZUL3BGN2JX8pdXisgVdI" version="23.1.6" type="device">
  <diagram name="Page-1" id="yHBDCcNvmc6cppxrCgNv">
    <mxGraphModel dx="1114" dy="600" grid="1" gridSize="10" guides="1" tooltips="1" connect="1" arrows="1" fold="1" page="1" pageScale="1" pageWidth="850" pageHeight="1100" math="0" shadow="0">
      <root>
        <mxCell id="0" />
        <mxCell id="1" parent="0" />
        <mxCell id="Z8MXc29SAMfIE31JGFPN-11" style="edgeStyle=orthogonalEdgeStyle;rounded=0;orthogonalLoop=1;jettySize=auto;html=1;" edge="1" parent="1" source="vGtao0e4mGzyQuMI1vEu-1" target="vGtao0e4mGzyQuMI1vEu-2">
          <mxGeometry relative="1" as="geometry" />
        </mxCell>
        <mxCell id="vGtao0e4mGzyQuMI1vEu-1" value="Client" style="sketch=0;outlineConnect=0;gradientColor=none;fontColor=#545B64;strokeColor=none;fillColor=#879196;dashed=0;verticalLabelPosition=bottom;verticalAlign=top;align=center;html=1;fontSize=12;fontStyle=0;aspect=fixed;shape=mxgraph.aws4.illustration_desktop;pointerEvents=1" parent="1" vertex="1">
          <mxGeometry x="167" y="370" width="100" height="91" as="geometry" />
        </mxCell>
        <mxCell id="Z8MXc29SAMfIE31JGFPN-2" style="edgeStyle=orthogonalEdgeStyle;rounded=0;orthogonalLoop=1;jettySize=auto;html=1;" edge="1" parent="1" source="vGtao0e4mGzyQuMI1vEu-2" target="vGtao0e4mGzyQuMI1vEu-4">
          <mxGeometry relative="1" as="geometry" />
        </mxCell>
        <mxCell id="vGtao0e4mGzyQuMI1vEu-2" value="Internet" style="sketch=0;pointerEvents=1;shadow=0;dashed=0;html=1;strokeColor=none;fillColor=#505050;labelPosition=center;verticalLabelPosition=bottom;outlineConnect=0;verticalAlign=top;align=center;shape=mxgraph.office.clouds.cloud;" parent="1" vertex="1">
          <mxGeometry x="170" y="137.5" width="94" height="55" as="geometry" />
        </mxCell>
        <mxCell id="Z8MXc29SAMfIE31JGFPN-5" style="edgeStyle=orthogonalEdgeStyle;rounded=0;orthogonalLoop=1;jettySize=auto;html=1;" edge="1" parent="1" source="vGtao0e4mGzyQuMI1vEu-3" target="Z8MXc29SAMfIE31JGFPN-4">
          <mxGeometry relative="1" as="geometry" />
        </mxCell>
        <mxCell id="vGtao0e4mGzyQuMI1vEu-3" value="Application server" style="sketch=0;pointerEvents=1;shadow=0;dashed=0;html=1;strokeColor=none;fillColor=#505050;labelPosition=center;verticalLabelPosition=bottom;verticalAlign=top;outlineConnect=0;align=center;shape=mxgraph.office.servers.application_server;" parent="1" vertex="1">
          <mxGeometry x="670" y="80" width="140" height="170" as="geometry" />
        </mxCell>
        <mxCell id="vGtao0e4mGzyQuMI1vEu-5" style="edgeStyle=orthogonalEdgeStyle;rounded=0;orthogonalLoop=1;jettySize=auto;html=1;curved=0;endArrow=block;endFill=1;" parent="1" source="vGtao0e4mGzyQuMI1vEu-4" target="vGtao0e4mGzyQuMI1vEu-3" edge="1">
          <mxGeometry relative="1" as="geometry" />
        </mxCell>
        <mxCell id="Z8MXc29SAMfIE31JGFPN-3" style="edgeStyle=orthogonalEdgeStyle;rounded=0;orthogonalLoop=1;jettySize=auto;html=1;" edge="1" parent="1" source="vGtao0e4mGzyQuMI1vEu-4" target="vGtao0e4mGzyQuMI1vEu-2">
          <mxGeometry relative="1" as="geometry" />
        </mxCell>
        <mxCell id="vGtao0e4mGzyQuMI1vEu-4" value="Nginx web server" style="outlineConnect=0;dashed=0;verticalLabelPosition=bottom;verticalAlign=top;align=center;html=1;shape=mxgraph.aws3.traditional_server;fillColor=#7D7C7C;gradientColor=none;" parent="1" vertex="1">
          <mxGeometry x="440" y="80" width="90" height="170" as="geometry" />
        </mxCell>
        <mxCell id="vGtao0e4mGzyQuMI1vEu-6" style="edgeStyle=orthogonalEdgeStyle;rounded=0;orthogonalLoop=1;jettySize=auto;html=1;entryX=1;entryY=0.5;entryDx=0;entryDy=0;entryPerimeter=0;" parent="1" source="vGtao0e4mGzyQuMI1vEu-3" target="vGtao0e4mGzyQuMI1vEu-4" edge="1">
          <mxGeometry relative="1" as="geometry" />
        </mxCell>
        <mxCell id="Z8MXc29SAMfIE31JGFPN-6" style="edgeStyle=orthogonalEdgeStyle;rounded=0;orthogonalLoop=1;jettySize=auto;html=1;" edge="1" parent="1" source="Z8MXc29SAMfIE31JGFPN-4" target="vGtao0e4mGzyQuMI1vEu-3">
          <mxGeometry relative="1" as="geometry" />
        </mxCell>
        <mxCell id="Z8MXc29SAMfIE31JGFPN-4" value="MySQL&amp;nbsp;&lt;br&gt;Database" style="shape=datastore;whiteSpace=wrap;html=1;" vertex="1" parent="1">
          <mxGeometry x="705" y="360.5" width="70" height="110" as="geometry" />
        </mxCell>
        <mxCell id="Z8MXc29SAMfIE31JGFPN-7" value="Code base" style="strokeWidth=2;html=1;shape=mxgraph.flowchart.document2;whiteSpace=wrap;size=0.25;" vertex="1" parent="1">
          <mxGeometry x="435" y="370" width="100" height="60" as="geometry" />
        </mxCell>
        <mxCell id="Z8MXc29SAMfIE31JGFPN-8" style="edgeStyle=orthogonalEdgeStyle;rounded=0;orthogonalLoop=1;jettySize=auto;html=1;entryX=0.5;entryY=0;entryDx=0;entryDy=0;entryPerimeter=0;" edge="1" parent="1" source="vGtao0e4mGzyQuMI1vEu-4" target="Z8MXc29SAMfIE31JGFPN-7">
          <mxGeometry relative="1" as="geometry" />
        </mxCell>
        <mxCell id="Z8MXc29SAMfIE31JGFPN-10" style="edgeStyle=orthogonalEdgeStyle;rounded=0;orthogonalLoop=1;jettySize=auto;html=1;entryX=0.5;entryY=1;entryDx=0;entryDy=0;entryPerimeter=0;" edge="1" parent="1" source="Z8MXc29SAMfIE31JGFPN-7" target="vGtao0e4mGzyQuMI1vEu-4">
          <mxGeometry relative="1" as="geometry" />
        </mxCell>
        <mxCell id="Z8MXc29SAMfIE31JGFPN-12" style="edgeStyle=orthogonalEdgeStyle;rounded=0;orthogonalLoop=1;jettySize=auto;html=1;entryX=0.5;entryY=-0.001;entryDx=0;entryDy=0;entryPerimeter=0;" edge="1" parent="1" source="vGtao0e4mGzyQuMI1vEu-2" target="vGtao0e4mGzyQuMI1vEu-1">
          <mxGeometry relative="1" as="geometry" />
        </mxCell>
        <mxCell id="Z8MXc29SAMfIE31JGFPN-13" value="www.foobar.com" style="edgeLabel;html=1;align=center;verticalAlign=middle;resizable=0;points=[];" vertex="1" connectable="0" parent="Z8MXc29SAMfIE31JGFPN-12">
          <mxGeometry x="0.0591" y="1" relative="1" as="geometry">
            <mxPoint as="offset" />
          </mxGeometry>
        </mxCell>
        <mxCell id="Z8MXc29SAMfIE31JGFPN-14" value="DNS server resolve &lt;br&gt;www.foobar.com&lt;br&gt;into it&#39;s IP address 8.8.8.8" style="text;html=1;align=center;verticalAlign=middle;resizable=0;points=[];autosize=1;strokeColor=none;fillColor=none;" vertex="1" parent="1">
          <mxGeometry x="130" y="83" width="160" height="60" as="geometry" />
        </mxCell>
      </root>
    </mxGraphModel>
  </diagram>
</mxfile>
